<?xml version="1.0" encoding="iso-8859-1"?>
<!-- Uploaded to: SVG Repo, www.svgrepo.com, Generator: SVG Repo Mixer Tools -->
<svg height="800px" width="800px" version="1.1" id="Capa_1" xmlns="http://www.w3.org/2000/svg" xmlns:xlink="http://www.w3.org/1999/xlink" 
	 viewBox="0 0 161.104 161.104" xml:space="preserve">
<g>
	<g>
		<path style="fill:#010002;" d="M160.236,129.656l-25.866-25.86l-0.006-0.006l-2.106-2.106l-2.106,2.106h-0.006l-25.866,25.866
			c-1.164,1.164-1.164,3.055,0,4.219c1.164,1.164,3.055,1.164,4.219,0l20.777-20.771v42.413c0,1.647,1.337,2.983,2.983,2.983
			s2.983-1.337,2.983-2.983v-42.413l20.771,20.771c0.585,0.585,1.349,0.871,2.112,0.871s1.528-0.292,2.112-0.871
			C161.393,132.711,161.393,130.826,160.236,129.656z"/>
		<path style="fill:#010002;" d="M104.308,84.338c0.585,0.585,1.349,0.871,2.112,0.871c0.764,0,1.528-0.292,2.112-0.871
			c1.164-1.164,1.164-3.055,0-4.219l-25.866-25.86c0,0,0,0-0.006-0.006l-2.106-2.106l-2.106,2.112c0,0,0,0-0.006,0.006
			l-25.866,25.86c-1.164,1.164-1.164,3.055,0,4.219c1.164,1.164,3.055,1.164,4.219,0l20.777-20.777v91.949
			c0,1.647,1.337,2.983,2.983,2.983c1.647,0,2.983-1.337,2.983-2.983V63.567L104.308,84.338z"/>
		<path style="fill:#010002;" d="M52.605,34.795c0.591,0.585,1.349,0.871,2.112,0.871c0.764,0,1.528-0.292,2.112-0.871
			c1.164-1.164,1.164-3.055,0-4.219L30.964,4.716c0,0,0,0-0.006-0.006l-2.106-2.106L26.745,4.71h-0.006L0.873,30.571
			c-1.164,1.164-1.164,3.055,0,4.219s3.055,1.164,4.219,0l20.777-20.771v141.492c0,1.647,1.337,2.983,2.983,2.983
			s2.983-1.337,2.983-2.983V14.018L52.605,34.795z"/>
	</g>
</g>
</svg>