<?xml version="1.0" encoding="iso-8859-1"?>
<!-- Uploaded to: SVG Repo, www.svgrepo.com, Generator: SVG Repo Mixer Tools -->
<!DOCTYPE svg PUBLIC "-//W3C//DTD SVG 1.1//EN" "http://www.w3.org/Graphics/SVG/1.1/DTD/svg11.dtd">
<svg fill="#000000" version="1.1" id="Capa_1" xmlns="http://www.w3.org/2000/svg" xmlns:xlink="http://www.w3.org/1999/xlink" 
	 width="800px" height="800px" viewBox="0 0 597.514 597.514"
	 xml:space="preserve">
<g>
	<g>
		<path d="M199.909,597.514L23.594,447.123c-8.237-7.637-12.982-18.039-13.361-29.291c-0.38-11.252,3.653-21.951,11.355-30.125
			l12.892-13.682c7.968-8.453,19.276-13.303,31.026-13.303c10.648,0,20.792,3.895,28.592,10.971l91.025,73.205L493.816,13.67
			l0.335-0.36C502.046,4.851,513.237,0,524.856,0c10.757,0,20.977,4.048,28.778,11.401l20.418,19.24
			c16.791,15.824,17.74,42.343,2.202,59.325L199.909,597.514z M33.781,435.92L197.4,575.473L564.589,80.274l0.294-0.314
			c10.179-10.893,9.633-28.072-1.217-38.297l-20.418-19.24c-4.981-4.694-11.514-7.279-18.394-7.279
			c-7.391,0-14.231,2.896-19.315,8.164L188.113,466.738L84.045,383.021c-5.023-4.613-11.608-7.156-18.541-7.156
			c-7.596,0-14.887,3.115-20.005,8.547l-12.892,13.68c-4.913,5.213-7.485,12.043-7.243,19.229
			C25.607,424.459,28.594,431.057,33.781,435.92z"/>
	</g>
</g>
</svg>